inDegrees=yes
name=ik_S42_A07_T01
DataType=double
version=3
OpenSimVersion=4.3-2021-08-27-4bc7ad9
endheader
time	pelvis_tilt	pelvis_list	pelvis_rotation	pelvis_tx	pelvis_ty	pelvis_tz	hip_flexion_r	hip_adduction_r	hip_rotation_r	knee_angle_r	knee_angle_r_beta	ankle_angle_r	subtalar_angle_r	mtp_angle_r	hip_flexion_l	hip_adduction_l	hip_rotation_l	knee_angle_l	knee_angle_l_beta	ankle_angle_l	subtalar_angle_l	mtp_angle_l	lumbar_extension	lumbar_bending	lumbar_rotation	arm_flex_r	arm_add_r	arm_rot_r	elbow_flex_r	pro_sup_r	wrist_flex_r	wrist_dev_r	arm_flex_l	arm_add_l	arm_rot_l	elbow_flex_l	pro_sup_l	wrist_flex_l	wrist_dev_l
19.99999999999966	-7.436867870691533	-4.406250693687076	27.53439948128086	0	0.9399999999999999	0	37.78827441026005	-10.03153402861554	-9.884826097188588	40.18231734359782	0.7013137387270036	0	0	0	37.78827441026005	-10.03153402861554	-9.884826097188588	40.18231734359782	0.7013137387270036	0	0	0	-7.299979439312226	-0.9881737866765014	3.192243172117768	75.84874502945564	3.112795156588804	4.825323771924793	30.76665422913563	100.0167120573495	0	0	31.12767286681285	-1.829247704132666	12.15247518462765	49.84384011340669	115.1559694182212	0	0
20.01999999999966	-7.429388063318356	-4.39682967411252	27.53519228923271	0	0.9399999999999999	0	37.76429497018433	-10.03182464322518	-9.884068830846269	40.14706211882226	0.7006984189761394	0	0	0	37.76429497018433	-10.03182464322518	-9.884068830846269	40.14706211882226	0.7006984189761394	0	0	0	-7.286600570020696	-0.9827535549867832	3.188333394421634	75.89159247497111	3.14253466562458	4.8172403205925	30.57316823196687	100.0911694061624	0	0	31.13950867067113	-1.799108354967178	12.11154147825431	49.74835238465481	115.2250443233966	0	0
20.03999999999966	-7.414730165629915	-4.38445097009958	27.52143152116692	0	0.9399999999999999	0	37.7425927819237	-10.03185246194953	-9.883708277531301	40.11162210455587	0.7000798740402371	0	0	0	37.7425927819237	-10.03185246194953	-9.883708277531301	40.11162210455587	0.7000798740402371	0	0	0	-7.264720211505893	-0.9793736641157598	3.192480269314931	75.90112593410268	3.170840198929022	4.766660135888935	30.42963156662089	100.2386043003474	0	0	31.11454560419928	-1.789994131480241	12.08037237523085	49.71484837690046	115.2408786989516	0	0
20.05999999999966	-7.394063861740607	-4.369672842562958	27.48355767758416	0	0.9399999999999999	0	37.7345709925053	-10.03195211596189	-9.883449614321416	40.09987938350121	0.6998749248946901	0	0	0	37.7345709925053	-10.03195211596189	-9.883449614321416	40.09987938350121	0.6998749248946901	0	0	0	-7.237828589402402	-0.9778731317669571	3.203808646793096	75.82530958187058	3.173477907371211	4.744957781385688	30.31430101587632	100.5617472987286	0	0	31.08737734602926	-1.780687690777021	12.03701240401369	49.68599568951257	115.270277974264	0	0
20.07999999999966	-7.383491577968869	-4.351549742932641	27.44317190430665	0	0.9399999999999999	0	37.73646005468117	-10.03192401719793	-9.883515876645127	40.10264522183342	0.699923197880165	0	0	0	37.73646005468117	-10.03192401719793	-9.883515876645127	40.10264522183342	0.699923197880165	0	0	0	-7.219291206180422	-0.9691847848683658	3.218659967635765	75.68434949322966	3.117345153996963	4.787486215690189	30.37673068563753	101.0393300962819	0	0	31.05723709846426	-1.756206451938198	11.96399914103682	49.65849842287629	115.3112335118686	0	0
20.09999999999966	-7.37736537829108	-4.355311654354	27.405101448286	0	0.9399999999999999	0	37.73801385563839	-10.03190125977274	-9.883569835113336	40.10494946680194	0.6999634145416381	0	0	0	37.73801385563839	-10.03190125977274	-9.883569835113336	40.10494946680194	0.6999634145416381	0	0	0	-7.214345986892169	-0.9787559433400206	3.237636246119799	75.52048759586647	3.014460317314639	4.801281361304826	30.80904359121975	101.387325958983	0	0	31.06938778782205	-1.766037834096576	11.88341526826903	49.62352380812928	115.3790005326284	0	0
20.11999999999966	-7.348996854802023	-4.347620628927736	27.32391483838575	0	0.9399999999999999	0	37.74114204226832	-10.03185519175057	-9.88367886715576	40.10956484538867	0.7000439680942026	0	0	0	37.74114204226832	-10.03185519175057	-9.88367886715576	40.10956484538867	0.7000439680942026	0	0	0	-7.182293992089806	-0.9936921555099634	3.290248284780271	75.17710664842352	2.848387538837857	4.877658153448839	31.78136215773523	101.1748579317872	0	0	31.02072668718517	-1.767840995793947	11.78654163613581	49.55007721909568	115.4657715529316	0	0
20.13999999999966	-7.337908551502369	-4.329986178866556	27.25441033511046	0	0.9399999999999999	0	37.74370938543157	-10.0318166546534	-9.883769494195093	40.11328762977983	0.7001089429391703	0	0	0	37.74370938543157	-10.0318166546534	-9.883769494195093	40.11328762977983	0.7001089429391703	0	0	0	-7.161695382337711	-0.9899381002180537	3.331782310817774	74.71771841436743	2.552583766992547	5.029591201926954	32.66995801922128	101.0411366494994	0	0	30.99169239662055	-1.735257868677622	11.65526158381881	49.50490427445988	115.498425697262	0	0
20.15999999999966	-7.329306715076091	-4.319113949884323	27.12612515109488	0	0.9399999999999999	0	37.74676422865785	-10.03177104699364	-9.883876968009004	40.11773437415998	0.7001865532695983	0	0	0	37.74676422865785	-10.03177104699364	-9.883876968009004	40.11773437415998	0.7001865532695983	0	0	0	-7.143000232374144	-0.9995128640163586	3.427375855514382	74.18035251509446	2.15668903048818	5.187853525666265	34.24992578358492	100.8530215475277	0	0	30.97228554204954	-1.733134260191466	11.53399569969457	49.47911884004959	115.5365585019874	0	0
20.17999999999966	-7.326053232020495	-4.290969319798336	26.94833504212555	0	0.9399999999999999	0	37.75197485384797	-10.03169245176617	-9.884061566193134	40.12524334002573	0.7003176094473756	0	0	0	37.75197485384797	-10.03169245176617	-9.884061566193134	40.12524334002573	0.7003176094473756	0	0	0	-7.118188245034898	-0.9982131839056949	3.565456785424338	73.52354394640049	1.536703772860028	5.378190725709311	36.24726873842483	100.3906690784036	0	0	30.93125027238832	-1.70208909494786	11.37174907060569	49.44349889202244	115.619201788673	0	0
20.19999999999966	-7.313195542352156	-4.259431989643322	26.97801545448283	0	0.9399999999999999	0	37.75647403608367	-10.03162490042606	-9.88422051501837	40.1317460393556	0.700431102960949	0	0	0	37.75647403608367	-10.03162490042606	-9.88422051501837	40.1317460393556	0.700431102960949	0	0	0	-7.097462471594085	-0.9658376874067236	3.501160651522101	73.46389508780767	1.548840796048385	5.537895584088816	37.50070021556966	100.3858812167501	0	0	30.8898183993414	-1.670568673959736	11.31296451569378	49.46907684382715	115.5923972955355	0	0
20.21999999999966	-7.318450628540421	-4.242065734466024	26.66649416120413	0	0.9399999999999999	0	37.76222674056111	-10.03153800001953	-9.884424627395399	40.14000389257025	0.7005752296886911	0	0	0	37.76222674056111	-10.03153800001953	-9.884424627395399	40.14000389257025	0.7005752296886911	0	0	0	-7.074186483636704	-0.9954775421024367	3.784720471975528	71.76158368652415	-0.1263735061383383	5.616972299953928	41.19464638662774	99.94047538708864	0	0	30.89349943637702	-1.597932041920041	11.04995033918001	49.36630726764261	115.7909268944966	0	0
20.23999999999966	-7.305752972540636	-4.210675693712356	26.44901373842898	0	0.9399999999999999	0	37.76775890414855	-10.03145456039233	-9.884620775666566	40.14794440255083	0.7007138177321397	0	0	0	37.76775890414855	-10.03145456039233	-9.884620775666566	40.14794440255083	0.7007138177321397	0	0	0	-7.038655777786455	-0.9975001191583668	3.935681405694909	70.63692106940924	-1.106213626025901	5.678198410378494	43.37015956610743	99.70242622641312	0	0	30.85797391941719	-1.536920017790606	10.86525025549036	49.28670174282365	115.8886459903625	0	0
20.25999999999966	-7.298901206046233	-4.211328041349548	26.52498402642992	0	0.9399999999999999	0	37.77248473169689	-10.03138384170254	-9.88478751646803	40.15476573107449	0.7008328723742377	0	0	0	37.77248473169689	-10.03138384170254	-9.88478751646803	40.15476573107449	0.7008328723742377	0	0	0	-7.0378049785695	-0.9901046243972818	3.864343632397772	70.6303507160919	-1.143024850220333	5.826110591981477	44.80016213851292	99.99282950953881	0	0	30.88174288497003	-1.473055661020765	10.80602094473654	49.22239404653628	115.966632923899	0	0
